<svg width="14" height="14" viewBox="0 0 14 14" fill="none" xmlns="http://www.w3.org/2000/svg">
<path d="M12.7172 6.81016L10.1419 6.80183L10.1374 6.51182V1.3892C10.1374 0.7786 10.4915 0.25053 11.0057 0.000400066H7.97602V7.49113H13.9819V5.68448C13.8756 6.46849 13.2155 6.81016 12.7172 6.81016ZM1.97397 5.53684C1.85145 5.74022 1.78056 5.97805 1.78056 6.23323C1.78056 6.80564 2.13737 7.29501 2.64025 7.48995H0L4.70158 0H6.99191V7.49118H3.96202C4.47613 7.24087 4.83054 6.71297 4.83054 6.10203V0.97958L1.97397 5.53684Z" fill="black"/>
<path d="M3.24377 9.77861V13.925C3.24377 13.9732 3.2015 13.9732 3.17734 13.9371L0.683344 11.3335V13.8768C0.683344 13.919 0.665228 13.9431 0.628997 13.9431H0.049282C0.0190924 13.9431 0.000976562 13.919 0.000976562 13.8768V9.76651C0.000976562 9.70021 0.0251242 9.69421 0.0794815 9.74241L2.55535 12.3701V9.77861C2.55535 9.74241 2.56743 9.72431 2.59158 9.72431H3.18942C3.22565 9.72431 3.24377 9.74241 3.24377 9.77861ZM3.89222 11.8217C3.89222 11.219 4.10962 10.7067 4.53836 10.2788C4.97315 9.85091 5.49852 9.64001 6.10844 9.64001C6.71834 9.64001 7.24371 9.85091 7.67246 10.2788C8.10725 10.7067 8.32464 11.219 8.32464 11.8217C8.32464 12.4304 8.10725 12.9427 7.67246 13.3706C7.24371 13.7924 6.71834 14.0034 6.10844 14.0034C5.49852 14.0034 4.97315 13.7924 4.53836 13.3706C4.10962 12.9427 3.89222 12.4304 3.89222 11.8217ZM7.61811 11.8217C7.61811 11.3998 7.47318 11.0382 7.17729 10.7429C6.88139 10.4476 6.52511 10.2969 6.10844 10.2969C5.69176 10.2969 5.32944 10.4476 5.03354 10.7489C4.73764 11.0442 4.58667 11.4058 4.58667 11.8217C4.58667 12.2375 4.73764 12.5991 5.03354 12.8944C5.32944 13.1898 5.69176 13.3404 6.10844 13.3404C6.52511 13.3404 6.88139 13.1898 7.17729 12.8944C7.47318 12.5991 7.61811 12.2375 7.61811 11.8217ZM12.2634 13.8708L11.1463 11.3275L10.0291 13.8768C9.97476 14.0034 9.9445 14.0034 9.8962 13.8768L8.29595 9.79671C8.27181 9.74241 8.28992 9.72431 8.3503 9.72431H8.99042C9.02058 9.72431 9.04472 9.74241 9.06286 9.78461L10.017 12.3641L11.0617 9.90521C11.1341 9.73041 11.1583 9.73041 11.2307 9.90521L12.2755 12.3761L13.2176 9.83281C13.2597 9.73041 13.2597 9.72431 13.3262 9.72431H13.9422C13.9965 9.72431 14.0146 9.76051 13.9905 9.82681L12.4023 13.8708C12.3419 14.0094 12.3298 14.0034 12.2634 13.8708Z" fill="black"/>
</svg>
